<?xml version="1.0" encoding="utf-8"?>
<!-- Generator: Adobe Illustrator 20.1.0, SVG Export Plug-In . SVG Version: 6.00 Build 0)  -->
<!DOCTYPE svg PUBLIC "-//W3C//DTD SVG 1.1//EN" "http://www.w3.org/Graphics/SVG/1.1/DTD/svg11.dtd">
<svg version="1.1" id="Layer_1" xmlns="http://www.w3.org/2000/svg" xmlns:xlink="http://www.w3.org/1999/xlink" x="0px" y="0px"
	 viewBox="0 0 128 128" enable-background="new 0 0 128 128" xml:space="preserve">
<path fill-rule="evenodd" clip-rule="evenodd" fill="#242424" d="M53,72.5V60.6L42.6,71.1c0,0-2.9,3.1-3.6,9.4V102
	c2.5,1.4,13.3,6.3,25,1v-6c0-0.5,0-0.9,0.5-1.1c0.2-0.1,5.5-2,5.5-6.9v-7l-11.2,0l-1.5,1.4c4,5.5,1.3,11.5-0.7,14
	c-0.2,0.3-0.6,0.5-1,0.5c-0.3,0-0.5-0.1-0.8-0.3c-0.5-0.4-0.6-1.2-0.2-1.8c0.2-0.3,4.9-6.2,0-11.8c-0.4-0.5-0.4-1.2,0.1-1.7l8.6-8.3
	c0.3-0.5,1.5-2.6,0.9-4.4c-0.3-0.9-1-1.6-2.2-2.1L47,81.3c-0.5,0.5-1.3,0.4-1.8-0.1s-0.4-1.3,0.1-1.8L53,72.5z"/>
<path fill-rule="evenodd" clip-rule="evenodd" fill="#242424" d="M86,22H58c-1.7,0-3,1.3-3,3v3h34v-3C89,23.3,87.7,22,86,22"/>
<path fill-rule="evenodd" clip-rule="evenodd" fill="#2AACE2" d="M55,69h1.5l4.8-4.4l1.5,0.6c1.9,0.8,3.4,2.1,3.8,3.8H89V31H55V69z"
	/>
<path fill-rule="evenodd" clip-rule="evenodd" fill="#242424" d="M60.6,80H86c1.7,0,3-1.3,3-3v-5l-22.3,0C66.1,75.4,60.6,80,60.6,80
	 M71.7,73.5c1.1,0,2.1,0.9,2.1,2s-0.9,2-2.1,2c-1.1,0-2.1-0.9-2.1-2S70.6,73.5,71.7,73.5"/>
</svg>
